<?xml version="1.0" encoding="utf-8"?>
<!-- Generator: Adobe Illustrator 16.0.0, SVG Export Plug-In . SVG Version: 6.00 Build 0)  -->
<!DOCTYPE svg PUBLIC "-//W3C//DTD SVG 1.1//EN" "http://www.w3.org/Graphics/SVG/1.1/DTD/svg11.dtd">
<svg version="1.1" id="Layer_1" xmlns="http://www.w3.org/2000/svg" xmlns:xlink="http://www.w3.org/1999/xlink" x="0px" y="0px"
	 width="320px" height="160px" viewBox="0 0 320 160" enable-background="new 0 0 320 160" xml:space="preserve">
<rect x="65.521" y="90.67" fill="#231815" width="9.338" height="23.864"/>
<rect x="26.347" y="77.18" transform="matrix(-0.766 -0.6429 0.6429 -0.766 -2.5163 177.3105)" fill="#231815" width="9.339" height="23.866"/>
<rect x="104.693" y="77.182" transform="matrix(0.7661 -0.6427 0.6427 0.7661 -31.6963 91.1294)" fill="#231815" width="9.337" height="23.866"/>
<path fill="#231815" d="M18.913,137.283h3.176c0.458,0,0.824-0.092,1.098-0.279c0.274-0.185,0.411-0.486,0.411-0.911
	c0-0.439-0.093-0.78-0.278-1.02c-0.185-0.237-0.561-0.506-1.124-0.807l-0.689-0.396c-0.864-0.478-1.552-1.035-2.063-1.68
	c-0.511-0.643-0.767-1.504-0.767-2.58c0-1.269,0.365-2.263,1.098-2.976c0.731-0.716,1.865-1.071,3.399-1.071h2.593v2.725h-2.593
	c-0.457,0-0.819,0.105-1.084,0.317c-0.264,0.211-0.396,0.528-0.396,0.953c0,0.353,0.097,0.693,0.291,1.019
	c0.194,0.324,0.599,0.664,1.217,1.019l0.529,0.29c0.529,0.318,0.974,0.618,1.336,0.899c0.361,0.283,0.657,0.583,0.885,0.898
	c0.231,0.32,0.394,0.668,0.491,1.046c0.097,0.381,0.146,0.825,0.146,1.337c0,1.358-0.362,2.36-1.085,3.002
	c-0.723,0.646-1.737,0.967-3.043,0.967h-3.546V137.283z"/>
<path fill="#231815" d="M37.382,125.563v10.265c0,1.57-0.397,2.743-1.191,3.519c-0.794,0.777-1.905,1.164-3.334,1.164
	c-1.446,0-2.562-0.387-3.347-1.164c-0.784-0.775-1.178-1.948-1.178-3.519v-10.265h3.044v10.372c0,0.634,0.145,1.087,0.436,1.361
	c0.291,0.273,0.666,0.408,1.124,0.408c0.459,0,0.803-0.135,1.032-0.408c0.229-0.274,0.343-0.728,0.343-1.361v-10.372H37.382z"/>
<path fill="#231815" d="M51.457,140.035v-10.371c0-0.565-0.137-0.988-0.41-1.271s-0.632-0.425-1.072-0.425
	c-0.969,0-1.454,0.575-1.454,1.721v10.346h-3.097v-10.346c0-0.563-0.122-0.992-0.37-1.281c-0.246-0.293-0.6-0.439-1.059-0.439
	c-0.44,0-0.789,0.143-1.044,0.425c-0.257,0.282-0.385,0.705-0.385,1.271v10.371h-3.096V129.56c0-1.501,0.385-2.622,1.151-3.362
	c0.768-0.74,1.865-1.085,3.294-1.031c0.776,0.036,1.402,0.221,1.878,0.557c0.477,0.335,0.839,0.706,1.086,1.11
	c0.247-0.404,0.621-0.775,1.124-1.11c0.502-0.336,1.151-0.521,1.944-0.557c1.43-0.054,2.546,0.291,3.348,1.031
	c0.801,0.74,1.204,1.861,1.204,3.362v10.476H51.457z"/>
<path fill="#231815" d="M64.077,126.569c-0.599-0.672-1.578-1.006-2.937-1.006h-3.731v2.752h3.361c0.424,0,0.727,0.093,0.912,0.275
	c0.186,0.186,0.278,0.489,0.278,0.914v1.058h-1.825c-1.235,0-2.192,0.274-2.871,0.821c-0.679,0.548-1.019,1.517-1.019,2.91v2.248
	c0,1.358,0.38,2.347,1.138,2.964c0.758,0.618,1.825,0.926,3.202,0.926c1.375,0,2.451-0.308,3.227-0.926
	c0.776-0.617,1.164-1.605,1.164-2.964v-6.983C64.977,128.234,64.678,127.238,64.077,126.569z M61.961,136.463
	c0,0.513-0.137,0.842-0.41,0.991c-0.273,0.151-0.596,0.226-0.965,0.226c-0.406,0-0.732-0.096-0.979-0.289
	c-0.247-0.196-0.371-0.548-0.371-1.059v-1.933c0-0.493,0.129-0.82,0.385-0.979c0.255-0.159,0.533-0.237,0.832-0.237h1.509V136.463z"
	/>
<path fill="#231815" d="M72.306,137.283h3.175c0.46,0,0.824-0.092,1.099-0.279c0.271-0.185,0.409-0.486,0.409-0.911
	c0-0.439-0.093-0.78-0.277-1.02c-0.187-0.237-0.561-0.506-1.124-0.807l-0.688-0.396c-0.865-0.478-1.554-1.035-2.064-1.68
	c-0.512-0.643-0.768-1.504-0.768-2.58c0-1.269,0.365-2.263,1.098-2.976c0.732-0.716,1.864-1.071,3.401-1.071h2.592v2.725h-2.592
	c-0.46,0-0.822,0.105-1.086,0.317c-0.266,0.211-0.396,0.528-0.396,0.953c0,0.353,0.096,0.693,0.29,1.019
	c0.194,0.324,0.6,0.664,1.218,1.019l0.528,0.29c0.529,0.318,0.976,0.618,1.335,0.899c0.362,0.283,0.658,0.583,0.889,0.898
	c0.229,0.32,0.393,0.668,0.489,1.046c0.096,0.381,0.145,0.825,0.145,1.337c0,1.358-0.361,2.36-1.084,3.002
	c-0.724,0.646-1.737,0.967-3.043,0.967h-3.545V137.283z"/>
<path fill="#231815" d="M81.037,125.773h1.533v-4.338h3.096v4.338h1.853v2.699h-1.853v6.748c0,0.776,0.146,1.297,0.438,1.559
	c0.291,0.268,0.719,0.399,1.283,0.399h0.636v2.856h-0.874c-1.606,0-2.769-0.353-3.493-1.06c-0.723-0.704-1.085-1.878-1.085-3.518
	v-6.985h-1.533V125.773z"/>
<path fill="#231815" d="M98.896,125.563v10.265c0,1.57-0.397,2.743-1.191,3.519c-0.793,0.777-1.904,1.164-3.334,1.164
	c-1.446,0-2.562-0.387-3.345-1.164c-0.786-0.775-1.178-1.948-1.178-3.519v-10.265h3.041v10.372c0,0.634,0.146,1.087,0.438,1.361
	c0.292,0.273,0.666,0.408,1.124,0.408s0.802-0.135,1.032-0.408c0.229-0.274,0.345-0.728,0.345-1.361v-10.372H98.896z"/>
<path fill="#231815" d="M107.018,121.409v4.47c-0.229-0.21-0.521-0.382-0.874-0.516c-0.352-0.13-0.74-0.197-1.163-0.197
	c-1.323,0-2.354,0.39-3.097,1.162c-0.739,0.776-1.109,1.915-1.109,3.415v6.112c0,1.499,0.404,2.637,1.217,3.413
	c0.812,0.775,1.958,1.163,3.439,1.163c1.5,0,2.653-0.388,3.466-1.163c0.812-0.776,1.218-1.914,1.218-3.413v-14.446H107.018z
	 M107.018,135.883c0,0.635-0.14,1.093-0.423,1.375c-0.282,0.283-0.67,0.422-1.164,0.422c-0.477,0-0.856-0.139-1.139-0.422
	c-0.281-0.282-0.422-0.74-0.422-1.375v-5.981c0-0.635,0.118-1.127,0.357-1.48c0.237-0.353,0.637-0.53,1.203-0.53
	c0.494,0,0.882,0.159,1.164,0.478c0.283,0.315,0.423,0.748,0.423,1.295V135.883z"/>
<path fill="#231815" d="M121.251,125.589v15.161c0,0.671-0.1,1.258-0.303,1.759c-0.204,0.503-0.491,0.925-0.861,1.271
	c-0.37,0.345-0.807,0.604-1.31,0.78c-0.502,0.174-1.053,0.265-1.653,0.265h-3.889v-2.778h3.466c0.563,0,0.961-0.122,1.19-0.37
	c0.229-0.246,0.344-0.636,0.344-1.164v-1.165c-0.547,0.3-1.111,0.451-1.692,0.451c-1.396,0-2.479-0.384-3.256-1.151
	c-0.774-0.768-1.163-1.947-1.163-3.533v-9.524h3.043v9.632c0,0.635,0.152,1.089,0.462,1.361c0.309,0.276,0.692,0.41,1.152,0.41
	c0.459,0,0.81-0.134,1.058-0.41c0.247-0.272,0.37-0.727,0.37-1.361v-9.632H121.251z"/>
<path fill="#231815" d="M74,50V15h-9v35H25.479c4.644,20,22.927,35.668,44.71,35.668S110.254,70,114.896,50H74z M70.188,75.995
	C57.231,75.995,45.835,69,39.357,59h61.665C94.542,69,83.146,75.995,70.188,75.995z"/>
<path fill="#231815" d="M146.521,15.13h11.628v32.184h-5.896c-0.998,0-1.863-0.104-2.596-0.312
	c-0.734-0.207-1.329-0.554-1.786-1.038c-0.457-0.483-0.795-1.127-1.019-1.931c-0.221-0.803-0.331-1.786-0.331-2.948V15.13z
	 M151.171,40.836c0,0.359,0.006,0.657,0.022,0.893c0.014,0.235,0.061,0.43,0.145,0.581c0.083,0.152,0.22,0.264,0.414,0.332
	c0.193,0.069,0.471,0.104,0.831,0.104h0.915V19.656h-2.327V40.836z M163.961,47.688h-4.236V14.882h4.236v13.662h1.412V14.882h4.319
	v32.806h-4.319V33.07h-1.412V47.688z"/>
<path fill="#CBCBCB" d="M173.203,21.857c0-2.242,0.649-4,1.95-5.273c1.302-1.273,2.991-1.91,5.067-1.91s3.765,0.637,5.065,1.91
	c1.302,1.273,1.952,3.031,1.952,5.273v2.824c0,1.136-0.173,2.153-0.519,3.053s-0.823,1.66-1.434,2.284
	c-0.608,0.623-1.349,1.1-2.221,1.432c-0.873,0.333-1.821,0.499-2.845,0.499c-1.052,0-2.007-0.166-2.865-0.499
	c-0.858-0.332-1.593-0.809-2.202-1.432c-0.607-0.624-1.086-1.385-1.433-2.284c-0.345-0.899-0.518-1.917-0.518-3.053V21.857z
	 M176.069,38.843h14.243v-1.412h-14.243v-4.028h18.977v9.095h-14.203v0.581c0,0.471,0.25,0.706,0.748,0.706h13.912v4.069h-15.572
	c-1.246,0-2.201-0.318-2.866-0.955c-0.664-0.637-0.995-1.592-0.995-2.865V38.843z M177.979,24.765c0,1.024,0.235,1.744,0.706,2.159
	s0.982,0.623,1.536,0.623s1.065-0.208,1.537-0.623c0.47-0.415,0.705-1.135,0.705-2.159v-2.907c0-1.023-0.235-1.744-0.705-2.159
	c-0.472-0.415-0.983-0.623-1.537-0.623s-1.065,0.208-1.536,0.623s-0.706,1.136-0.706,2.159V24.765z M195.004,14.882v17.44h-4.733
	v-17.44H195.004z"/>
<path fill="#231815" d="M155.017,94.351v-8.098h-7.624v-4.525h21.429v4.525h-8.073v8.098H155.017z M162.343,80.19l-3.19-13.539
	c-0.067-0.221-0.157-0.408-0.274-0.561s-0.322-0.229-0.622-0.229h-0.35c-0.463,0-0.748,0.264-0.847,0.789l-3.638,13.539h-5.829
	l4.037-14.369c0.196-0.691,0.446-1.314,0.746-1.869c0.3-0.554,0.681-1.031,1.146-1.433c0.465-0.401,1.029-0.712,1.694-0.935
	c0.664-0.221,1.476-0.332,2.442-0.332h0.946c1.858,0,3.222,0.423,4.084,1.267c0.865,0.845,1.479,1.945,1.846,3.302l4.035,14.369
	H162.343z"/>
<path fill="#CBCBCB" d="M172.435,66.319h15.157v4.36h-1.535c0.165,0.416,0.297,0.853,0.394,1.309
	c0.098,0.457,0.145,0.921,0.145,1.392v1.619c0,1.08-0.165,2.043-0.498,2.887c-0.331,0.846-0.795,1.55-1.39,2.118
	c-0.598,0.567-1.296,0.995-2.098,1.286c-0.805,0.292-1.677,0.438-2.615,0.438c-1.911,0-3.489-0.568-4.735-1.704
	c-1.246-1.134-1.869-2.809-1.869-5.024V73.38c0-0.969,0.167-1.869,0.498-2.7h-1.453V66.319z M189.295,82.806
	c1.661,0,2.838,0.347,3.529,1.039s1.038,1.801,1.038,3.322v6.894h-4.775v-5.232c0-0.638-0.104-1.079-0.312-1.329
	s-0.685-0.374-1.433-0.374H175.05v-4.319H189.295z M184.644,60.63v4.484h-9.385V60.63H184.644z M178.166,74.46
	c0,1.883,0.608,2.824,1.828,2.824c1.245,0,1.867-0.941,1.867-2.824v-0.955c0-0.803-0.152-1.439-0.457-1.91s-0.775-0.707-1.41-0.707
	c-1.22,0-1.828,0.873-1.828,2.617V74.46z M193.862,61.253v8.306h2.409v4.527h-2.409v7.642h-4.775V61.253H193.862z"/>
<path fill="#CBCBCB" d="M205.792,66.735h15.157v4.36h-1.536c0.166,0.415,0.298,0.852,0.394,1.308
	c0.097,0.457,0.147,0.922,0.147,1.393v1.867c0,1.08-0.167,2.043-0.499,2.887c-0.333,0.845-0.798,1.551-1.392,2.118
	c-0.595,0.568-1.293,0.996-2.097,1.286c-0.803,0.291-1.675,0.438-2.617,0.438c-1.91,0-3.487-0.568-4.733-1.703
	c-1.245-1.134-1.868-2.81-1.868-5.025v-1.867c0-0.97,0.165-1.869,0.498-2.7h-1.454V66.735z M213.019,94.061
	c-3.433,0-5.149-1.634-5.149-4.9v-5.191h4.775v4.153c0,0.636,0.117,1.066,0.353,1.288c0.236,0.22,0.671,0.33,1.308,0.33h8.141
	V61.253h4.775v10.715h2.408v4.527h-2.408v17.565H213.019z M218.001,60.63v4.484h-9.385V60.63H218.001z M211.522,75.083
	c0,0.996,0.152,1.723,0.458,2.18c0.304,0.457,0.762,0.686,1.369,0.686c1.246,0,1.869-0.955,1.869-2.865V73.92
	c0-0.831-0.152-1.475-0.457-1.932c-0.304-0.456-0.774-0.685-1.412-0.685c-1.219,0-1.827,0.871-1.827,2.616V75.083z"/>
<path fill="#CBCBCB" d="M231.539,66.36h15.573v4.444h-1.454c0.387,1.024,0.582,2.159,0.582,3.405v3.24
	c0,1.908-0.396,3.467-1.185,4.671c-0.788,1.204-1.903,2.014-3.343,2.429v4.983h5.98c0.664,0,0.997-0.441,0.997-1.329V61.253h4.733
	V89.41c0,1.66-0.381,2.85-1.143,3.57c-0.762,0.719-1.89,1.08-3.384,1.08h-17.399v-4.527h5.439V84.55
	c-1.468-0.388-2.589-1.176-3.364-2.365c-0.774-1.19-1.162-2.769-1.162-4.734v-3.24c0-1.301,0.179-2.436,0.54-3.405h-1.412V66.36z
	 M244.329,60.173v4.444h-9.675v-4.444H244.329z M237.146,77.616c0,1.135,0.229,1.889,0.686,2.264c0.456,0.373,0.947,0.56,1.474,0.56
	c0.58,0,1.087-0.192,1.516-0.582c0.429-0.387,0.643-1.134,0.643-2.241v-3.53c0-1.079-0.214-1.806-0.643-2.181
	c-0.429-0.373-0.936-0.561-1.516-0.561c-0.526,0-1.018,0.181-1.474,0.541c-0.457,0.359-0.686,1.093-0.686,2.2V77.616z"/>
<path fill="#CBCBCB" d="M264.844,80.149l-1.537-13.747c-0.028-0.222-0.057-0.38-0.084-0.478c-0.028-0.097-0.124-0.146-0.29-0.146
	c-0.167,0-0.265,0.049-0.291,0.146c-0.028,0.098-0.056,0.256-0.083,0.478l-0.955,13.747h-4.485l1.412-15.2
	c0.083-1.052,0.374-1.931,0.871-2.638c0.499-0.705,1.33-1.059,2.492-1.059h1.455c1.022,0,1.791,0.318,2.305,0.955
	c0.511,0.638,0.795,1.537,0.851,2.699l0.457,7.85l0.498-7.85c0.055-1.162,0.332-2.062,0.83-2.699
	c0.499-0.637,1.26-0.955,2.284-0.955h1.453c1.163,0,1.999,0.354,2.512,1.059c0.514,0.707,0.811,1.586,0.895,2.638l1.411,15.2h-4.526
	l-0.955-13.747c-0.027-0.222-0.056-0.38-0.083-0.478c-0.028-0.097-0.111-0.146-0.25-0.146c-0.166,0-0.262,0.049-0.29,0.146
	c-0.027,0.098-0.068,0.256-0.124,0.478l-1.495,13.747H264.844z M278.38,81.851c1.661,0,2.838,0.347,3.531,1.039
	c0.69,0.692,1.036,1.8,1.036,3.322v7.849h-4.774v-6.188c0-0.665-0.104-1.115-0.312-1.349c-0.208-0.236-0.686-0.354-1.433-0.354
	h-15.697v-4.319H278.38z M282.947,61.253v18.979h-4.774V61.253H282.947z"/>
<path fill="#CBCBCB" d="M286.437,68.396c0-2.271,0.637-4.042,1.91-5.316c1.273-1.272,2.948-1.91,5.025-1.91
	c2.075,0,3.751,0.638,5.024,1.91c1.272,1.274,1.91,3.046,1.91,5.316v18.105c0,2.271-0.638,4.051-1.91,5.336
	c-1.273,1.288-2.949,1.931-5.024,1.931c-2.077,0-3.752-0.643-5.025-1.931c-1.273-1.285-1.91-3.065-1.91-5.336V68.396z
	 M291.212,86.502c0,1.054,0.222,1.792,0.665,2.223c0.442,0.429,0.94,0.644,1.495,0.644c0.552,0,1.043-0.215,1.474-0.644
	c0.43-0.431,0.644-1.169,0.644-2.223V68.396c0-1.052-0.214-1.786-0.644-2.202c-0.431-0.415-0.922-0.623-1.474-0.623
	c-0.555,0-1.053,0.208-1.495,0.623c-0.443,0.416-0.665,1.15-0.665,2.202V86.502z M308.03,61.253v32.808h-4.775V61.253H308.03z"/>
<path fill="#231815" d="M146.625,107.854h13.578v4.527h-8.845v7.433c0,0.72,0.138,1.245,0.415,1.578
	c0.277,0.331,0.775,0.498,1.496,0.498h7.142v4.526h-8.057c-2.021,0-3.48-0.449-4.38-1.349c-0.901-0.9-1.35-2.514-1.35-4.839V107.854
	z M153.27,130.029h9.219v-2.034h4.692v7.766c0,0.97-0.132,1.758-0.395,2.366c-0.264,0.609-0.63,1.08-1.101,1.413
	c-0.471,0.332-1.018,0.56-1.641,0.685s-1.309,0.187-2.056,0.187h-7.848c-0.805,0-1.544-0.062-2.222-0.187
	c-0.68-0.125-1.261-0.36-1.744-0.706c-0.485-0.347-0.866-0.824-1.142-1.433c-0.277-0.608-0.416-1.397-0.416-2.367v-7.724h4.651
	V130.029z M162.488,133.934h-9.219v0.913c0,0.389,0.04,0.679,0.124,0.872c0.083,0.194,0.207,0.325,0.374,0.396
	c0.166,0.068,0.374,0.104,0.622,0.104c0.249,0,0.526,0,0.831,0h5.315c0.304,0,0.573,0,0.81,0c0.234,0,0.436-0.035,0.602-0.104
	c0.167-0.07,0.297-0.201,0.395-0.396c0.098-0.193,0.146-0.483,0.146-0.872V133.934z M167.181,107.604v7.892h2.408v4.567h-2.408v6.52
	h-4.775v-18.979H167.181z"/>
<path fill="#CBCBCB" d="M173.556,114.769c0-2.271,0.637-4.043,1.91-5.316c1.273-1.272,2.948-1.91,5.024-1.91
	c2.077,0,3.752,0.638,5.024,1.91c1.273,1.273,1.91,3.046,1.91,5.316v18.105c0,2.27-0.637,4.049-1.91,5.337
	c-1.272,1.286-2.947,1.931-5.024,1.931c-2.076,0-3.751-0.645-5.024-1.931c-1.273-1.288-1.91-3.067-1.91-5.337V114.769z
	 M178.331,132.874c0,1.052,0.222,1.792,0.664,2.222c0.443,0.429,0.941,0.644,1.495,0.644s1.045-0.215,1.475-0.644
	c0.429-0.43,0.644-1.17,0.644-2.222v-18.105c0-1.052-0.215-1.785-0.644-2.201c-0.43-0.415-0.921-0.623-1.475-0.623
	s-1.052,0.208-1.495,0.623c-0.442,0.416-0.664,1.149-0.664,2.201V132.874z M195.149,107.625v32.807h-4.775v-32.807H195.149z"/>
<path fill="#CBCBCB" d="M200.296,107.875h13.372v4.526h-8.637v21.054c0,0.721,0.139,1.239,0.416,1.557
	c0.274,0.319,0.774,0.479,1.493,0.479h6.977v4.567h-7.89c-0.996,0-1.862-0.104-2.595-0.311c-0.734-0.209-1.33-0.554-1.787-1.039
	c-0.456-0.484-0.796-1.127-1.016-1.931c-0.223-0.803-0.334-1.785-0.334-2.947V107.875z M220.853,107.625v13.663h2.408v4.526h-2.408
	v14.617h-4.776v-32.807H220.853z"/>
</svg>
