<!--?xml version="1.0" encoding="utf-8"?-->
<!-- Generator: Adobe Illustrator 18.1.1, SVG Export Plug-In . SVG Version: 6.00 Build 0)  -->

<svg version="1.1" id="_x32_" xmlns="http://www.w3.org/2000/svg" xmlns:xlink="http://www.w3.org/1999/xlink" x="0px" y="0px" viewBox="0 0 512 512" style="width: 256px; height: 256px; opacity: 1;" xml:space="preserve">
<style type="text/css">
	.st0{fill:#4B4B4B;}
</style>
<g>
	<path class="st0" d="M487.753,174.494l-0.267-1.408l-0.574-1.319c-0.777-1.812-1.951-4.919-3.44-8.634
		c-4.077-10.066-10.575-24.865-22.616-38.329c0.017-0.688,0.041-1.36,0.041-2.08c0.008-33.847-13.748-64.612-35.934-86.782
		C402.792,13.755,372.021-0.008,338.173,0c-33.847-0.008-64.61,13.755-86.782,35.942c-22.179,22.171-35.951,52.935-35.943,86.782
		c-0.008,11.198,1.319,20.908,3.148,29.898c1.836,8.998,4.102,17.259,6.157,26.176c0.745,3.26,1.675,6.084,2.589,8.529
		c-24.258-2.363-46.275-3.528-66.084-3.528c-21.434,0-40.295,1.343-56.737,4.03c-12.332,2.015-23.312,4.782-33.006,8.382
		c-14.492,5.406-26.297,12.72-34.729,22.6c-4.192,4.928-7.469,10.486-9.629,16.458c-2.168,5.972-3.22,12.315-3.212,18.756
		c0.008,11.069,2.978,22.348,8.221,33.846c5.252,11.506,12.816,23.312,22.567,35.603c6.821,8.585,11.782,14.929,15.998,21.167
		c4.231,6.255,7.848,12.502,12.153,21.459c13.464,28.029,32.342,52.466,56.592,70.016c14.8,10.738,31.646,18.789,50.168,23.417
		L164.609,512h75.77v-23.012h-39.284l12.178-25.521c4.491,0.38,9.046,0.599,13.683,0.591c24.703,0.008,48.152-5.478,69.215-15.237
		l31.751,49.893l62.022-21.88l-7.655-21.702l-44.77,15.795l-21.159-33.232c9.839-6.36,18.982-13.707,27.204-21.936
		c29.834-29.802,48.315-71.117,48.315-116.608h-0.008c0.056-1.156,0.097-2.313,0.097-3.495c-0.024-8.229-1.068-17.559-2.056-26.978
		c-0.987-9.369-1.918-18.756-1.909-25.828c-0.016-3.706,0.299-6.684,0.655-8.31c17.478-7.905,32.69-19.752,44.616-34.397
		c11.758-0.372,22.001-1.246,30.279-2.768c2.452-0.461,4.75-0.97,6.935-1.593c3.293-0.971,6.286-2.015,9.564-4.151
		c1.634-1.109,3.398-2.533,5.041-4.839c0.808-1.149,1.569-2.54,2.104-4.126c0.55-1.587,0.865-3.367,0.858-5.122
		C488.053,176.476,487.94,175.449,487.753,174.494z M447.409,172.447c-6.053,0.55-13.173,0.898-21.006,1.003l-6.716,0.097
		l-3.949,5.437c-10.22,14.072-24.112,25.262-40.247,32.099c-3.803,1.586-6.821,4.394-8.714,7.161
		c-1.465,2.104-2.428,4.216-3.156,6.263c-1.076,3.082-1.635,6.068-1.99,9.094c-0.34,3.027-0.47,6.101-0.47,9.249
		c0.016,9.184,1.06,19.169,2.056,28.628c0.995,9.402,1.918,18.36,1.902,24.178c0,1.011-0.025,1.917-0.073,2.678l-0.016,0.413v0.404
		c-0.008,38.16-15.439,72.598-40.45,97.625c-25.027,25.003-59.457,40.434-97.624,40.434c-28.095-0.032-51.722-8.416-71.748-22.851
		c-19.97-14.434-36.25-35.166-48.129-59.885c-0.68-1.424-1.36-2.718-2.023-4.054c12.566,4.224,24.032,7.112,34.204,9.006
		c17.372,3.245,31.087,3.714,40.215,3.714c3.641,0,6.562-0.064,8.496-0.064c5.292,0,9.588-4.297,9.588-9.597
		c0-5.3-4.297-9.588-9.588-9.588c-2.339,0-5.098,0.073-8.496,0.073c-8.447,0-20.755-0.421-36.704-3.39
		c-14.953-2.792-33.126-7.89-54.076-17.025c-3.819-5.228-7.994-10.527-12.938-16.766c-8.731-10.996-15.107-21.127-19.169-30.043
		c-4.078-8.934-5.809-16.572-5.793-22.713c0.049-6.401,1.635-11.272,5.041-16.046c2.598-3.552,6.417-7.08,11.911-10.406
		c8.189-4.976,20.124-9.338,35.756-12.308c15.634-2.994,34.915-4.628,57.757-4.628c20.497,0,43.841,1.311,70.049,4.063l2.032,0.21
		l2.006-0.397c2.5-0.501,4.758-1.051,6.91-1.756c1.635-0.534,3.229-1.158,4.855-2.015c1.222-0.63,2.468-1.416,3.714-2.435
		c1.861-1.497,3.722-3.657,4.92-6.231c1.23-2.564,1.698-5.332,1.674-7.59c-0.032-3.326-0.752-5.656-1.376-7.582
		c-0.987-2.848-1.998-4.984-2.881-7.209c-0.89-2.209-1.674-4.426-2.257-6.935c-2.209-9.564-4.418-17.655-5.996-25.48
		c-1.586-7.832-2.605-15.414-2.613-24.557c0.008-26.524,10.714-50.395,28.078-67.792c17.397-17.372,41.283-28.077,67.799-28.085
		c26.516,0.008,50.41,10.713,67.799,28.085c17.373,17.397,28.078,41.267,28.086,67.792c0,1.966-0.105,4.053-0.251,6.303l-0.38,6.142
		l4.402,4.305c6.975,6.805,12.081,14.961,15.892,22.68c1.538,3.14,2.824,6.125,3.997,8.974
		C454.846,171.629,451.382,172.091,447.409,172.447z" style="fill: rgb(218, 218, 218);"></path>
	<path class="st0" d="M361.825,110.579c-8.472,0-15.334,6.87-15.334,15.349c0,8.464,6.862,15.342,15.334,15.342
		c8.472,0,15.342-6.878,15.342-15.342C377.167,117.449,370.297,110.579,361.825,110.579z" style="fill: rgb(218, 218, 218);"></path>
</g>
</svg>
