<?xml version="1.0" encoding="utf-8"?>
<!-- Generator: Adobe Illustrator 16.0.0, SVG Export Plug-In . SVG Version: 6.00 Build 0)  -->
<!DOCTYPE svg PUBLIC "-//W3C//DTD SVG 1.1//EN" "http://www.w3.org/Graphics/SVG/1.1/DTD/svg11.dtd">
<svg version="1.1" id="_x32_" xmlns="http://www.w3.org/2000/svg" xmlns:xlink="http://www.w3.org/1999/xlink" x="0px" y="0px"
	 width="256px" height="256px" viewBox="0 0 256 256" enable-background="new 0 0 256 256" xml:space="preserve">
<g>
	<polygon fill="#DADADA" points="69.137,76.821 54.028,58.821 39.645,70.888 54.749,88.896 	"/>
	<polygon fill="#DADADA" points="216.355,70.888 201.967,58.821 186.862,76.821 201.247,88.896 	"/>
	<path fill="#DADADA" d="M114.175,50.278v8.539h27.646v-8.539c1.938-1.153,3.717-2.54,5.299-4.118
		c4.888-4.884,7.918-11.665,7.918-19.119c0-7.458-3.03-14.239-7.918-19.119C142.234,3.034,135.455,0,128,0
		c-7.458,0-14.239,3.034-19.123,7.922c-4.884,4.88-7.918,11.661-7.918,19.119c0,7.455,3.034,14.235,7.918,19.119
		C110.459,47.739,112.241,49.125,114.175,50.278z M128,6.781c5.604,0.003,10.649,2.263,14.322,5.937
		c3.671,3.674,5.932,8.719,5.935,14.323c-0.003,5.604-2.263,10.646-5.935,14.323c-0.16,0.161-0.332,0.318-0.501,0.475v-7.018
		h-27.646v7.018c-0.168-0.157-0.337-0.314-0.502-0.475c-3.67-3.677-5.93-8.719-5.93-14.323s2.26-10.649,5.93-14.323
		C117.351,9.044,122.392,6.784,128,6.781z"/>
	<path fill="#DADADA" d="M128,108.072c1.847,0,3.348-1.497,3.348-3.348c0-1.847-1.501-3.344-3.348-3.344
		c-1.85,0-3.349,1.498-3.349,3.344C124.651,106.575,126.149,108.072,128,108.072z"/>
	<path fill="#DADADA" d="M128,215.088c-1.85,0-3.349,1.498-3.349,3.348c0,1.848,1.498,3.344,3.349,3.344
		c1.847,0,3.348-1.496,3.348-3.344C131.348,216.586,129.847,215.088,128,215.088z"/>
	<path fill="#DADADA" d="M101.247,115.244c1.601-0.927,2.149-2.973,1.226-4.574c-0.924-1.601-2.973-2.149-4.574-1.226
		c-1.601,0.928-2.149,2.973-1.226,4.574C97.6,115.619,99.645,116.167,101.247,115.244z"/>
	<path fill="#DADADA" d="M154.754,207.92c-1.602,0.924-2.149,2.97-1.227,4.57c0.924,1.602,2.973,2.153,4.574,1.227
		c1.598-0.924,2.148-2.973,1.227-4.574C158.4,207.541,156.355,206.998,154.754,207.92z"/>
	<path fill="#DADADA" d="M80.438,130.252c-1.601-0.922-3.651-0.375-4.574,1.23c-0.927,1.602-0.375,3.646,1.226,4.57
		s3.647,0.375,4.57-1.227C82.583,133.225,82.035,131.18,80.438,130.252z"/>
	<path fill="#DADADA" d="M175.563,192.908c1.602,0.923,3.65,0.375,4.574-1.227c0.923-1.601,0.375-3.646-1.227-4.574
		c-1.602-0.923-3.646-0.375-4.574,1.227C173.413,189.936,173.961,191.98,175.563,192.908z"/>
	<path fill="#DADADA" d="M71.144,158.232c-1.847,0-3.348,1.498-3.348,3.348c0,1.851,1.501,3.349,3.348,3.349
		c1.851,0,3.348-1.498,3.348-3.349C74.492,159.73,72.995,158.232,71.144,158.232z"/>
	<path fill="#DADADA" d="M184.855,164.929c1.847,0,3.344-1.498,3.344-3.349c0-1.85-1.497-3.348-3.344-3.348
		c-1.851,0-3.348,1.498-3.348,3.348S183.005,164.929,184.855,164.929z"/>
	<path fill="#DADADA" d="M77.089,187.107c-1.601,0.928-2.153,2.973-1.226,4.574c0.924,1.602,2.973,2.149,4.574,1.227
		c1.597-0.928,2.145-2.973,1.222-4.574C80.736,186.732,78.691,186.186,77.089,187.107z"/>
	<path fill="#DADADA" d="M178.91,136.052c1.602-0.923,2.149-2.968,1.227-4.569c-0.928-1.605-2.973-2.153-4.574-1.23
		c-1.602,0.928-2.148,2.973-1.227,4.574C175.264,136.428,177.309,136.976,178.91,136.052z"/>
	<path fill="#DADADA" d="M101.247,207.92c-1.602-0.922-3.647-0.379-4.575,1.223c-0.923,1.602-0.375,3.65,1.226,4.574
		c1.601,0.927,3.651,0.375,4.574-1.227C103.395,210.89,102.848,208.844,101.247,207.92z"/>
	<path fill="#DADADA" d="M154.754,115.244c1.597,0.923,3.646,0.375,4.574-1.226c0.922-1.601,0.371-3.647-1.227-4.574
		c-1.602-0.923-3.65-0.375-4.574,1.226C152.604,112.271,153.152,114.316,154.754,115.244z"/>
	<path fill="#DADADA" d="M214.996,124.828c-7.176-16.958-19.135-31.358-34.201-41.533c-7.531-5.091-15.844-9.125-24.725-11.887
		c-8.875-2.762-18.314-4.249-28.071-4.249c-13.013,0-25.455,2.644-36.756,7.424c-16.958,7.175-31.354,19.134-41.533,34.201
		c-5.091,7.531-9.125,15.843-11.887,24.723c-2.762,8.872-4.245,18.314-4.245,28.072c0,13.009,2.643,25.455,7.423,36.756
		c7.175,16.958,19.135,31.354,34.197,41.533c7.535,5.09,15.847,9.124,24.723,11.886C108.8,254.514,118.239,256,128,256
		c13.009,0,25.451-2.644,36.752-7.424c16.955-7.176,31.357-19.135,41.533-34.197c5.091-7.535,9.125-15.848,11.887-24.728
		c2.762-8.872,4.248-18.314,4.248-28.071C222.42,148.57,219.775,136.129,214.996,124.828z M128,237.223
		c-10.47-0.005-20.395-2.119-29.439-5.942c-13.564-5.734-25.133-15.338-33.289-27.416c-4.08-6.037-7.306-12.688-9.512-19.786
		c-2.206-7.099-3.401-14.645-3.401-22.498c0-10.469,2.118-20.395,5.941-29.438c5.735-13.561,15.339-25.13,27.417-33.29
		c6.037-4.076,12.687-7.305,19.786-9.512s14.645-3.398,22.498-3.398c10.465,0,20.395,2.115,29.439,5.941
		c13.562,5.73,25.13,15.335,33.285,27.413c4.079,6.037,7.31,12.691,9.515,19.789c2.207,7.099,3.398,14.642,3.398,22.494
		c0,10.469-2.117,20.395-5.941,29.439c-5.73,13.564-15.338,25.133-27.412,33.289c-6.037,4.08-12.691,7.305-19.79,9.512
		C143.396,236.026,135.853,237.223,128,237.223z"/>
	<g>
		<path fill="#DADADA" d="M124.512,169.082c0,2.977-0.303,5.475-0.907,7.498c-0.605,2.023-1.768,3.895-3.488,5.615
			c-1.255,1.256-2.779,2.244-4.569,2.965c-1.791,0.721-3.918,1.082-6.383,1.082c-2.418,0-4.581-0.373-6.487-1.117
			c-1.907-0.742-3.442-1.697-4.604-2.859c-1.395-1.396-2.418-2.988-3.069-4.779c-0.652-1.789-0.977-3.639-0.977-5.545h9.068
			c0.279,2.047,0.883,3.582,1.813,4.604c0.93,1.023,2.348,1.535,4.255,1.535c1.813,0,3.254-0.535,4.325-1.605
			c0.698-0.697,1.197-1.684,1.5-2.963c0.302-1.279,0.453-2.756,0.453-4.43c0-3.023-0.468-5.268-1.404-6.732
			c-0.935-1.465-2.502-2.197-4.7-2.197c-1.685,0-3.065,0.418-4.14,1.256c-0.889,0.697-1.521,1.629-1.894,2.791h-8.231v-28.043
			h28.321v8.162h-20.09v10.672c0.743-0.697,1.767-1.291,3.069-1.779c1.301-0.488,2.766-0.732,4.395-0.732
			c1.999,0,3.778,0.291,5.336,0.873c1.557,0.582,2.871,1.406,3.941,2.477c1.767,1.768,3,3.883,3.697,6.348
			C124.256,163.988,124.512,166.291,124.512,169.082z"/>
		<path fill="#DADADA" d="M161.972,171.453c0,4.604-1.488,8.256-4.464,10.951c-2.791,2.559-6.325,3.838-10.604,3.838
			c-4.232,0-7.767-1.279-10.603-3.838c-3.023-2.742-4.534-6.393-4.534-10.951v-20.928c0-4.557,1.511-8.207,4.534-10.951
			c2.836-2.557,6.37-3.836,10.603-3.836c4.231,0,7.743,1.279,10.533,3.836c3.022,2.744,4.534,6.395,4.534,10.951V171.453z
			 M152.903,171.383v-20.717c0-2.047-0.547-3.686-1.639-4.918c-1.094-1.232-2.547-1.85-4.36-1.85s-3.278,0.605-4.395,1.814
			s-1.674,2.859-1.674,4.953v20.717c0,2.047,0.558,3.674,1.674,4.883c1.116,1.211,2.581,1.814,4.395,1.814s3.267-0.594,4.36-1.779
			C152.356,175.115,152.903,173.477,152.903,171.383z"/>
	</g>
</g>
</svg>
