<!--?xml version="1.0" encoding="utf-8"?-->
<!-- Generator: Adobe Illustrator 18.1.1, SVG Export Plug-In . SVG Version: 6.00 Build 0)  -->

<svg version="1.1" id="_x32_" xmlns="http://www.w3.org/2000/svg" xmlns:xlink="http://www.w3.org/1999/xlink" x="0px" y="0px" viewBox="0 0 512 512" style="width: 256px; height: 256px; opacity: 1;" xml:space="preserve">
<style type="text/css">
	.st0{fill:#4B4B4B;}
</style>
<g>
	<path class="st0" d="M17.763,181.363h44.603c9.806,0,17.763-7.956,17.763-17.779c0-9.816-7.957-17.772-17.763-17.772H17.763
		C7.956,145.812,0,153.768,0,163.584C0,173.407,7.956,181.363,17.763,181.363z" style="fill: rgb(218, 218, 218);"></path>
	<rect x="21.952" y="199.963" class="st0" width="33.253" height="112.075" style="fill: rgb(218, 218, 218);"></rect>
	<path class="st0" d="M80.13,348.417c0-9.816-7.957-17.78-17.763-17.78H17.763C7.956,330.638,0,338.602,0,348.417
		c0,9.814,7.956,17.771,17.763,17.771h44.603C72.173,366.188,80.13,358.232,80.13,348.417z" style="fill: rgb(218, 218, 218);"></path>
	<rect x="134.227" y="154.499" class="st0" width="149.64" height="24.94" style="fill: rgb(218, 218, 218);"></rect>
	<rect x="134.227" y="245.946" class="st0" width="149.64" height="24.94" style="fill: rgb(218, 218, 218);"></rect>
	<rect x="134.227" y="337.392" class="st0" width="91.446" height="24.94" style="fill: rgb(218, 218, 218);"></rect>
	<path class="st0" d="M55.205,78.648c0.008-3.824,3.118-6.933,6.938-6.942H315.65c8.48,0.008,15.998,3.385,21.571,8.93
		c5.545,5.578,8.926,13.095,8.934,21.572v59.614c10.899-16.205,21.96-30.826,33.253-43.418v-16.196
		c-0.012-35.218-28.54-63.746-63.759-63.755H62.143C39.935,38.47,21.964,56.444,21.952,78.648v48.565h33.253V78.648z" style="fill: rgb(218, 218, 218);"></path>
	<path class="st0" d="M346.156,313.702v96.09c-0.008,8.475-3.389,15.993-8.934,21.562c-5.573,5.553-13.091,8.931-21.571,8.938
		H62.143c-3.82-0.007-6.929-3.117-6.938-6.941v-48.564H21.952v48.564c0.012,22.204,17.983,40.178,40.191,40.194H315.65
		c35.218-0.007,63.746-28.536,63.759-63.754v-114.17c-8.22,5.423-18.206,9.101-29.491,10.684
		C348.765,308.571,347.491,311.072,346.156,313.702z" style="fill: rgb(218, 218, 218);"></path>
	<path class="st0" d="M457.935,95.486c-74.065,10.204-151.463,189.371-186.368,253.677c-8.768,16.156,11.622,29.64,20.645,14.175
		c6.503-11.114,41.968-81.12,41.968-81.12c38.64,1.274,52.892-25.703,37.446-42.46c51.926,1.072,77.657-27.506,62.935-44.847
		c15.485,4.904,28.905,1.624,48.824-9.238C525.898,162.487,523.913,84.875,457.935,95.486z" style="fill: rgb(218, 218, 218);"></path>
</g>
</svg>
