<?xml version="1.0" encoding="utf-8"?>
<!-- Generator: Adobe Illustrator 16.0.0, SVG Export Plug-In . SVG Version: 6.00 Build 0)  -->
<!DOCTYPE svg PUBLIC "-//W3C//DTD SVG 1.1//EN" "http://www.w3.org/Graphics/SVG/1.1/DTD/svg11.dtd">
<svg version="1.1" id="_x32_" xmlns="http://www.w3.org/2000/svg" xmlns:xlink="http://www.w3.org/1999/xlink" x="0px" y="0px"
	 width="256px" height="256px" viewBox="0 0 256 256" enable-background="new 0 0 256 256" xml:space="preserve">
<g>
	<path fill="#DADADA" d="M59.307,44.649c4.741,0,8.588-3.843,8.588-8.584V8.585C67.894,3.844,64.047,0,59.307,0
		c-4.742,0-8.589,3.844-8.589,8.584v27.48C50.718,40.806,54.565,44.649,59.307,44.649z"/>
	<path fill="#DADADA" d="M127.996,44.649c4.741,0,8.588-3.843,8.588-8.584V8.585c0-4.741-3.847-8.585-8.588-8.585
		c-4.742,0-8.588,3.844-8.588,8.584v27.48C119.408,40.806,123.255,44.649,127.996,44.649z"/>
	<path fill="#DADADA" d="M196.686,44.649c4.742,0,8.588-3.843,8.588-8.584V8.585C205.274,3.844,201.428,0,196.686,0
		c-4.74,0-8.588,3.844-8.588,8.584v27.48C188.099,40.806,191.945,44.649,196.686,44.649z"/>
	<path fill="#DADADA" d="M213.5,22.45h-1.355v13.615c0,8.519-6.932,15.453-15.458,15.453c-8.519,0-15.457-6.935-15.457-15.453V22.45
		h-37.775v13.615c0,8.519-6.938,15.453-15.457,15.453s-15.457-6.935-15.457-15.453V22.45H74.764v13.615
		c0,8.519-6.938,15.453-15.457,15.453s-15.458-6.934-15.458-15.453V22.45H42.5c-18.541,0-33.566,15.029-33.566,33.566v166.417
		C8.934,240.971,23.959,256,42.5,256h171.001c18.533,0,33.566-15.029,33.566-33.566V56.016
		C247.066,37.479,232.033,22.45,213.5,22.45z M225.428,219.886c0,7.987-6.496,14.482-14.479,14.482H45.051
		c-7.986,0-14.485-6.495-14.485-14.482V71.558h194.861L225.428,219.886L225.428,219.886z"/>
</g>
<g>
	<path fill="#DADADA" d="M107.043,198.046h-16.46v-72.424l-18.358,15.953l-0.028-17.758l18.359-15.953l16.487,0.031V198.046z"/>
	<path fill="#DADADA" d="M175.795,198.046h-16.461v-72.424l-18.359,15.953l-0.027-17.758l18.359-15.953l16.488,0.031V198.046z"/>
</g>
</svg>
