<?xml version="1.0" encoding="utf-8"?>
<!-- Generator: Adobe Illustrator 16.0.0, SVG Export Plug-In . SVG Version: 6.00 Build 0)  -->
<!DOCTYPE svg PUBLIC "-//W3C//DTD SVG 1.1//EN" "http://www.w3.org/Graphics/SVG/1.1/DTD/svg11.dtd">
<svg version="1.1" id="_x32_" xmlns="http://www.w3.org/2000/svg" xmlns:xlink="http://www.w3.org/1999/xlink" x="0px" y="0px"
	 width="256px" height="256px" viewBox="0 0 256 256" enable-background="new 0 0 256 256" xml:space="preserve">
<g id="XMLID_7_">
	<path id="lozenge_2_" fill="#DAD9DA" d="M254.478,97.694c0,0-1.486-10.445-6.052-15.046c-5.79-6.036-12.28-6.068-15.256-6.42
		c-21.308-1.533-53.27-1.533-53.27-1.533h-0.067c0,0-31.961,0-53.268,1.533c-2.977,0.353-9.465,0.384-15.257,6.42
		c-4.565,4.601-6.051,15.046-6.051,15.046s-1.523,12.265-1.523,24.532v11.499c0,12.267,1.523,24.532,1.523,24.532
		s1.485,10.444,6.051,15.046c5.792,6.037,13.401,5.846,16.789,6.479c12.183,1.164,51.77,1.523,51.77,1.523s31.995-0.047,53.303-1.58
		c2.976-0.354,9.466-0.385,15.256-6.422c4.565-4.602,6.052-15.046,6.052-15.046S256,145.992,256,133.726v-11.499
		C256,109.959,254.478,97.694,254.478,97.694z"/>
	<path id="u_3_" fill="#DAD9DA" d="M95.875,160.97h-9.688v-5.608c-3.672,4.21-6.786,6.336-10.181,6.336
		c-2.977,0-5.046-1.404-6.081-3.942c-0.629-1.543-1.075-3.954-1.075-7.493v-40.793h9.688v38.243c0,2.164,0,3.061,0,3.569
		c0.226,1.431,0.834,1.954,2.065,1.954c1.854,0,3.533-1.611,5.583-4.504v-39.263h9.688V160.97z"/>
	<path id="o_2_" fill="#DAD9DA" d="M61.712,126.296c0-5.504-1.106-9.637-3.061-12.238c-2.582-3.523-6.628-4.965-10.708-4.965
		c-4.617,0-8.132,1.442-10.708,4.965c-1.986,2.601-3.05,6.779-3.05,12.283l-0.008,18.313c0,5.472,0.946,9.253,2.931,11.829
		c2.578,3.513,6.758,5.372,10.836,5.372c4.08,0,8.331-1.859,10.913-5.372c1.954-2.576,2.856-6.357,2.856-11.829V126.296z
		 M52.023,145.673c0.509,5.1-1.073,7.63-4.082,7.63c-3.007,0-4.587-2.53-4.077-7.63v-20.397c-0.511-5.099,1.069-7.489,4.079-7.489
		c3.008,0,4.594,2.391,4.085,7.489L52.023,145.673z"/>
	<path id="y_2_" fill="#DAD9DA" d="M23.468,132.924v28.046H13.269v-28.046c0,0-10.568-34.383-12.748-40.792H11.23l7.155,26.86
		l7.122-26.86h10.708L23.468,132.924z"/>
	<path id="e_2_" fill="#FFFFFF" d="M243.257,137.004l-0.001-10.424c0-5.445-1.072-9.431-3.004-12.006
		c-2.586-3.487-6.262-5.333-10.893-5.333c-4.714,0-8.39,1.846-11.059,5.333c-1.962,2.576-3.105,6.786-3.105,12.233v17.847
		c0,5.414,1.257,9.205,3.218,11.755c2.67,3.48,6.346,5.22,11.174,5.22c4.823,0,8.613-1.823,11.166-5.524
		c1.123-1.634,1.848-3.484,2.159-5.53c0.083-0.925,0.328-3.03,0.328-6.005v-1.445h-9.689c0,3.704,0.019,5.906-0.068,6.409
		c-0.527,2.468-1.852,3.703-4.123,3.703c-3.17,0-4.509-2.369-4.476-7.073v-9.158H243.257z M224.884,123.726
		c0-4.767,1.306-6.066,4.389-6.066c3.061,0,4.278,1.417,4.278,6.129v5.565l-8.667,0.011V123.726z"/>
	<path id="b_2_" fill="#FFFFFF" d="M200.462,109.161c-3.396,0-6.771,2.089-9.753,5.758l0.009-22.278h-9.178v68.329h9.178
		l0.014-5.134c3.085,3.817,6.448,5.792,9.73,5.792c3.676,0,6.362-1.969,7.594-5.757c0.616-2.161,1.021-5.486,1.021-10.198v-20.397
		c0-4.826-0.619-8.126-1.236-10.176C206.609,111.285,204.138,109.161,200.462,109.161z M199.388,146.183
		c0,5.099-1.203,7.053-3.864,7.053c-1.521,0-3.271-0.781-4.814-2.324l0.009-30.926c1.544-1.524,3.285-2.325,4.806-2.325
		c2.661,0,3.864,1.497,3.864,6.597V146.183z"/>
	<path id="u_2_" fill="#FFFFFF" d="M173.892,160.97h-9.688v-5.608c-3.674,4.21-6.786,6.336-10.182,6.336
		c-2.977,0-5.046-1.404-6.08-3.942c-0.631-1.543-1.076-3.954-1.076-7.493V109.98h9.688v37.732c0,2.164,0,3.061,0,3.569
		c0.226,1.431,0.834,1.954,2.066,1.954c1.854,0,3.532-1.611,5.583-4.504V109.98h9.688V160.97z"/>
	<polygon id="T_2_" fill="#FFFFFF" points="137.178,160.97 126.979,160.97 126.979,102.33 116.272,102.33 116.272,92.653 
		148.396,92.641 148.396,102.33 137.178,102.33 	"/>
</g>
</svg>
