<!--?xml version="1.0" encoding="utf-8"?-->
<!-- Generator: Adobe Illustrator 18.1.1, SVG Export Plug-In . SVG Version: 6.00 Build 0)  -->

<svg version="1.1" id="_x32_" xmlns="http://www.w3.org/2000/svg" xmlns:xlink="http://www.w3.org/1999/xlink" x="0px" y="0px" viewBox="0 0 512 512" style="width: 256px; height: 256px; opacity: 1;" xml:space="preserve">
<style type="text/css">
	.st0{fill:#4B4B4B;}
</style>
<g>
	<path class="st0" d="M462.888,349.034c-13.507-19.272-25.114-36.952-34.468-57.808c-9.353-20.855-16.596-45.096-20.836-77.943
		c-3.117-24.146-8.739-45.548-16.883-64.235c-6.102-14.006-13.652-26.448-22.612-37.23c-13.42-16.165-30.036-28.434-49.03-36.426
		c-6.734-2.858-13.718-5.16-20.99-6.955c0,0-0.01-0.009-0.02-0.009c3.243-6.399,5.104-13.661,5.094-21.278
		c0-6.466-1.314-12.71-3.712-18.36c-3.588-8.48-9.545-15.647-17.066-20.721C274.865,2.984,265.713-0.009,256.005,0
		c-6.466,0-12.711,1.324-18.362,3.713c-8.48,3.588-15.646,9.554-20.73,17.066c-5.085,7.502-8.068,16.663-8.058,26.37
		c0,6.467,1.314,12.702,3.712,18.352c0.422,1.008,0.882,1.986,1.372,2.945c0,0-0.009,0.01-0.019,0.01
		c-4.978,1.228-9.852,2.696-14.572,4.413c-12.979,4.72-24.99,11.31-35.724,19.733c-16.116,12.644-29.288,29.355-39.14,49.577
		c-9.881,20.222-16.557,43.955-20.049,71.104c-4.26,32.846-11.502,57.088-20.856,77.943c-9.353,20.856-20.961,38.536-34.448,57.808
		c-9.392,13.392-13.65,28.367-13.65,42.478c0,7.243,1.122,14.294,3.252,20.884c3.204,9.852,8.692,18.793,16.548,25.527
		c3.933,3.367,8.432,6.149,13.439,8.058c4.98,1.928,10.447,2.964,16.049,2.964h101.409c0.7,7.07,2.474,13.872,5.151,20.203
		c5.343,12.596,14.226,23.292,25.402,30.87c11.196,7.54,24.789,12.001,39.283,11.982c9.632,0,18.899-1.957,27.312-5.516
		c12.615-5.352,23.312-14.217,30.89-25.422c6.303-9.324,10.428-20.327,11.607-32.117h101.408c7.492,0,14.668-1.861,20.874-5.161
		c4.682-2.456,8.807-5.679,12.347-9.392c5.286-5.602,9.286-12.269,11.962-19.54c2.705-7.291,4.106-15.196,4.106-23.34
		C476.52,377.4,472.261,362.426,462.888,349.034z M240.876,40.762c1.228-2.916,3.329-5.459,5.958-7.234
		c2.637-1.766,5.717-2.782,9.171-2.791c2.302,0.009,4.422,0.46,6.379,1.285c2.926,1.238,5.459,3.339,7.233,5.958
		c1.775,2.648,2.792,5.717,2.792,9.17c0,2.303-0.461,4.423-1.286,6.38c-1.228,2.925-3.328,5.458-5.957,7.233
		c-2.638,1.775-5.717,2.792-9.161,2.792c-2.312,0-4.432-0.461-6.389-1.286c-2.926-1.228-5.459-3.329-7.233-5.957
		c-1.765-2.638-2.782-5.708-2.792-9.162C239.591,44.838,240.051,42.718,240.876,40.762z M111.619,303.802
		c10.62-23.637,18.745-51.236,23.292-86.587c2.812-21.775,7.79-40.367,14.553-55.87c5.075-11.636,11.156-21.536,18.073-29.853
		c10.427-12.519,22.745-21.603,37.364-27.801c14.602-6.168,31.61-9.401,51.112-9.401c17.297,0,32.684,2.551,46.124,7.444
		c10.101,3.694,19.148,8.672,27.264,15.061c12.183,9.554,22.399,22.284,30.515,38.861c8.106,16.577,14.006,37.04,17.171,61.558
		c4.547,35.351,12.673,62.95,23.292,86.587c7.071,15.771,15.196,29.71,23.887,43.054H87.752
		C96.444,333.512,104.55,319.574,111.619,303.802z M292.372,457.156c-2.993,7.071-8.02,13.133-14.322,17.384
		c-6.321,4.268-13.823,6.724-22.036,6.724c-5.496,0-10.647-1.103-15.368-3.098c-7.051-2.983-13.114-8.01-17.373-14.312
		c-2.984-4.432-5.113-9.459-6.101-14.908h77.637C294.3,451.804,293.465,454.548,292.372,457.156z M444.028,402.927
		c-1.669,5.161-4.394,9.181-7.291,11.637c-1.468,1.256-2.945,2.13-4.479,2.724c-1.554,0.595-3.156,0.921-5.028,0.921h-105.12
		h-34.506h-63.228h-34.515H84.769c-2.504-0.02-4.528-0.566-6.542-1.602c-1.496-0.787-2.993-1.909-4.393-3.406
		c-2.111-2.216-4.058-5.286-5.42-9.017c-1.381-3.713-2.196-8.059-2.196-12.673c0.018-7.31,1.975-15.166,6.676-22.697h366.234
		c4.681,7.511,6.638,15.387,6.657,22.697C445.784,395.598,445.151,399.503,444.028,402.927z" style="fill: rgb(114, 114, 114);"></path>
</g>
</svg>
